<svg fill="none" height="266" viewBox="0 0 620 266" width="620" xmlns="http://www.w3.org/2000/svg"><path d="m611.699 232h-611.699v-11.484h22.3756v-9.17h16.6225v-27.532h13.7778v27.532h15.4973v-13.203h3.0995v-3.163h19.6583v3.163h2.6324v12.927h6.0291v-19.38h9.8925v20.229h3.015v-6.453h9.044v-11.187h13.332v15.496h14.202v-31.416h7.324v-4.309h37.873v5.604h5.583v31.841h7.749v-7.748h7.324v7.748h7.749v-11.633h17.217v12.057 3.439h9.892 6.879v-53.365h5.18v-2.993h8.173v3.439h4.734v42.603h17.217v-24.114h17.217v15.071h39.147v15.92h17.216v-38.718h19.807v30.546h13.778v9.042h13.757v-7.747h6.899v-20.654h8.173v-5.604h35.729v5.604h7.728v23.222h6.899v6.899h8.598v-16.366h39.168v9.043h34.009v11.611h18.937v-6.453h11.188v6.453h14.202v7.748h15.476v5.455z" fill="#e9eaed" opacity=".64"/><path d="m205.586 208h-64v24h64z" fill="#fb8c35"/><path d="m142.709 211.634v-1.755h36.755v1.755z" fill="#231f20" stroke="#bf3d00" stroke-width="2.2456"/><path d="m197.29 184.642h-64v24h64z" fill="#fb8c35"/><path d="m184.323 184.609h-32v4h32z" fill="#bf3d00"/><path d="m499.014 208h-64v24h64z" fill="#fb8c35"/><path d="m484.323 208.609h-32v4h32z" fill="#bf3d00"/><path clip-rule="evenodd" d="m258.71 254.598h-160v-4h160z" fill="#a6acb6" fill-rule="evenodd" opacity=".5"/><path clip-rule="evenodd" d="m362.407 235.598h-38.175v-4h38.175z" fill="#a6acb6" fill-rule="evenodd" opacity=".5"/><path clip-rule="evenodd" d="m516.939 265.116h-144.491v-4h144.491z" fill="#a6acb6" fill-rule="evenodd" opacity=".5"/><path d="m173.612 126.726c13.305 1.099 25.629 7.438 34.261 17.622 8.632 10.183 12.866 23.379 11.771 36.684-.109 1.247-.257 2.477-.448 3.67l-99.889-11.944c.541-6.589 2.376-13.007 5.399-18.886 3.022-5.88 7.174-11.106 12.217-15.381s10.879-7.514 17.174-9.533c6.295-2.018 12.927-2.777 19.515-2.232z" fill="#00003b"/><path d="m472.113 150.682c6.529.538 12.888 2.357 18.714 5.352 5.825 2.996 11.004 7.11 15.24 12.108 4.235 4.998 7.445 10.781 9.445 17.019s2.751 12.809 2.211 19.338l.025.451-99.369-8.583c1.078-13.18 7.342-25.393 17.417-33.958 10.074-8.565 23.136-12.783 36.317-11.727z" fill="#00003b"/><path d="m479.426 200.445c.305 5.515-3.919 10.232-9.433 10.536-5.515.305-10.232-3.919-10.536-9.433-.305-5.515 3.919-10.232 9.433-10.536 5.515-.305 10.232 3.919 10.536 9.433z" fill="#4d596d" stroke="#00003b" stroke-width="4"/><path d="m178.947 175.798c.304 5.515-3.919 10.232-9.434 10.536-5.514.305-10.231-3.919-10.536-9.433-.304-5.515 3.919-10.232 9.434-10.536 5.514-.305 10.231 3.919 10.536 9.433z" fill="#4d596d" stroke="#00003b" stroke-width="4"/><path d="m515.81 205.53c1.458 5.004 4.995 6.601 7.45 6.466 1.664-.169 3.193-.988 4.255-2.279 1.062-1.292 1.57-2.951 1.414-4.615l2.028-24.663c.94-2.594 7.388-21.433 1.002-35.385-5.355-11.705-12.75-13.582-16.208-13.766-2.28-5.962-13.317-19.105-87.016-28.494 0 0-44.377-59.7945-54.235-70.2945s-85.5-16.5096-137.366-16.5096c-12.631.6972-22.364 2.1409-28.886 4.294-31.172 10.3511-60.339 53.8127-64.824 60.7203-7.004.564-49.3276 6.9987-57.7201 81.2738-.2951 2.572.2635 5.169 1.5896 7.393 1.3262 2.223 3.3464 3.949 5.7496 4.911 5.0624 1.938 10.4869 2.748 15.8939 2.374 3.483-.215 6.937-.769 10.313-1.653l2.122-1.891c.911-11.701 6.016-22.681 14.377-30.918 8.36-8.238 19.414-13.18 31.128-13.918 2.01-.105 4.024-.091 6.032.041 12.818.92 24.748 6.887 33.174 16.591s12.659 22.353 11.771 35.174c-.06 1.047-.183 2.039-.305 3.031v.001c-.255 1.823-.135 3.68.353 5.455.488 1.776 1.332 3.433 2.483 4.871 1.134 1.414 2.545 2.58 4.147 3.427 1.603.847 3.362 1.356 5.169 1.497l172.667 14.271c.767.059 1.538.07 2.307.031 4.06-.225 7.896-1.932 10.781-4.797 2.886-2.865 4.619-6.689 4.873-10.747l-.03-.55c.882-11.608 5.949-22.501 14.258-30.654 8.31-8.152 19.297-13.011 30.92-13.672 2.122-.117 4.249-.096 6.368.062 6.293.493 12.428 2.225 18.05 5.096 5.622 2.872 10.621 6.826 14.71 11.636 4.088 4.81 7.186 10.38 9.115 16.391s2.651 12.344 2.124 18.635l-.054.811z" fill="#fb0"/><path d="m178.263 63.9139c10.704-12.4133 24.237-24.9828 36.365-29.0808 7.877-2.5826 23.669-3.8484 44.127-3.756 1.366.0091 2.715.3068 3.959.8736 1.243.5667 2.352 1.3898 3.255 2.4152s1.58 2.23 1.985 3.535c.405 1.3049.53 2.6807.366 4.0372l-4.265 35.171c-.312 2.4828-1.572 4.7491-3.515 6.3252-1.944 1.5761-4.421 2.34-6.915 2.1322l-68.845-5.6776c-1.779-.1488-3.483-.7871-4.922-1.8442-1.44-1.0571-2.559-2.4918-3.233-4.1454-.675-1.6536-.879-3.4615-.59-5.2238s1.061-3.4103 2.228-4.7616z" fill="#f2ffff"/><path d="m282.881 40.8584c.309-2.4427 1.537-4.6758 3.435-6.2448 1.897-1.5689 4.321-2.3559 6.778-2.2007 4.923.2997 9.89.6758 15.137 1.1349 29.395 2.4365 49.579 5.7755 54.495 7.376 12.354 12.3329 23.305 25.9958 32.652 40.7389 1.005 1.5165 1.563 3.2856 1.608 5.1045.046 1.8188-.422 3.6137-1.349 5.1788-.928 1.5651-2.278 2.8371-3.896 3.6701-1.617.8329-3.437 1.1932-5.25 1.0394l-99.288-8.194c-1.3-.1204-2.562-.502-3.711-1.1219s-2.161-1.4653-2.975-2.4857c-.815-1.0203-1.415-2.1945-1.764-3.4523-.35-1.2578-.442-2.5732-.271-3.8674z" fill="#f2ffff"/><g fill="#fff"><path d="m328.429 35.3691 37.49 59.4864 20.626 1.6989.904-.0499-36.713-58.2485c-5.761-.8446-13.306-1.8862-22.307-2.8869z"/><path d="m351.094 93.6442 9.007.7442-37.597-59.6381c-2.895-.3131-5.945-.598-9.073-.8785z"/><path d="m218.511 33.7913 32.522 51.5834 2.593.2115c2.494.2079 4.971-.556 6.915-2.1321s3.203-3.8424 3.515-6.3252l.447-2.9607-26.963-42.6096c-6.39.2665-12.751 1.0128-19.029 2.2327z"/><path d="m236.207 84.1437 9.006.7442-31.378-49.7747c-2.241.8522-4.411 1.8813-6.49 3.0775z"/></g><path d="m178.263 63.9139c10.704-12.4133 24.237-25.9828 36.365-30.0808 7.877-2.5826 20.872-5.3333 44.127-2.756 1.366.0091 2.715.3068 3.959.8735 1.243.5668 2.352 1.3898 3.255 2.4153.903 1.0254 1.58 2.23 1.985 3.5349.405 1.305.529 2.6808.366 4.0373l-4.266 35.171c-.311 2.4828-1.571 4.7491-3.514 6.3252-1.944 1.5761-4.421 2.34-6.915 2.1321l-68.845-5.6775c-1.779-.1488-3.483-.7871-4.922-1.8442-1.44-1.0571-2.559-2.4918-3.233-4.1454-.675-1.6536-.879-3.4616-.59-5.2239s1.061-3.4102 2.228-4.7615z" stroke="#540808" stroke-miterlimit="10" stroke-width="4"/><path d="m282.881 40.8584c.309-2.4427 1.537-4.6758 3.435-6.2448 1.897-1.5689 4.321-2.3559 6.778-2.2007 4.923.2997 9.89.6758 15.137 1.1349 29.395 2.4365 48.269 4.452 54.495 7.376 8.274 3.8863 23.305 25.9958 32.652 40.7389 1.005 1.5165 1.563 3.2856 1.608 5.1045.046 1.8188-.422 3.6137-1.349 5.1788-.928 1.5651-2.278 2.8371-3.896 3.6701-1.617.8329-3.437 1.1932-5.25 1.0394l-99.288-8.194c-1.3-.1204-2.562-.502-3.711-1.1219s-2.161-1.4653-2.975-2.4857c-.815-1.0203-1.415-2.1945-1.764-3.4523-.35-1.2578-.442-2.5732-.271-3.8674z" stroke="#540808" stroke-miterlimit="10" stroke-width="4"/><path d="m514.274 133.439s9.414-1.505 15.867 12.602c2.89 6.303 2.969 13.806 2.176 20.135-5.092-.414-9.869-2.636-13.466-6.264s-5.778-8.424-6.148-13.52c-.44-4.38.096-8.804 1.571-12.953z" fill="#fff"/><path d="m124.676 101.555.259-3.1671c.191-2.2568-1.795-4.6693-4.794-6.1786l-1.33-.8921c-7.921 5.3633-16.515 14.2318-23.2929 28.8718l1.4537-.08c15.7382-.455 26.7392-7.841 27.7042-18.554z" fill="#bf3d00"/><path d="m302.275 108.955-20.726-2.311c-1.426-.159-2.71.868-2.869 2.293l-.002.02c-.159 1.425.868 2.71 2.293 2.869l20.727 2.31c1.425.159 2.709-.868 2.868-2.293l.003-.02c.158-1.425-.868-2.71-2.294-2.868z" fill="#540808"/><path d="m234 172c0-33.137-26.863-60-60-60" stroke="#fff" stroke-linecap="round" stroke-width="4"/><path d="m405 196c0-21.372 11.175-40.135 28-50.763" stroke="#fff" stroke-linecap="round" stroke-width="4"/><circle cx="404.5" cy="98.5" r="4.5" stroke="#540808" stroke-miterlimit="10" stroke-width="4"/></svg>