<svg fill="none" height="197" viewBox="0 0 440 197" width="440" xmlns="http://www.w3.org/2000/svg" xmlns:xlink="http://www.w3.org/1999/xlink"><mask id="a" fill="#000" height="55" maskUnits="userSpaceOnUse" width="71" x="291" y="105.604"><path d="m291 105.604h71v55h-71z" fill="#fff"/><path clip-rule="evenodd" d="m346.726 157.232c9.689-.368 16.888-4.391 8.56-24.628-6.528-15.865-10.762-24-24.037-24-13.276 0-24.038 10.745-24.038 24 0 5.207 1.661 10.027 4.483 13.96h-12.174c-3.049 0-5.52 2.472-5.52 5.52 0 3.049 2.471 5.52 5.52 5.52h45.208c.705 0 1.379-.132 1.998-.372z" fill="#000" fill-rule="evenodd"/></mask><path d="m0 121h440v29h-440z" fill="#e9eaed" opacity=".8"/><path d="m266.323 3.61933 4.804 8.29787c.353.6091.435 1.2942-.036 1.8167-1.754 1.9433-6.992 5.8931-8.254 5.07-3.343-2.1788-1.812-9.49814.087-14.93303.538-1.54138 2.581-1.66455 3.399-.25154z" fill="#fc8c00"/><rect fill="#fb0" height="13.3483" rx="6.67415" transform="matrix(.94509559 -.32679401 .32679401 .94509559 -26.358143 122.706908)" width="39.155" x="352" y="139.796"/><path clip-rule="evenodd" d="m264.068 157.604c13.218 0 23.932-10.745 23.932-24s-10.714-24-23.932-24c-13.217 0-23.931 10.745-23.931 24 0 4.774 1.39 9.222 3.786 12.96h-6.403c-3.049 0-5.52 2.472-5.52 5.52 0 3.049 2.471 5.52 5.52 5.52h24.857c.185 0 .368-.009.548-.027.379.018.76.027 1.143.027z" fill="#fb0" fill-rule="evenodd"/><path clip-rule="evenodd" d="m258.1 70.8402c-4.916-4.8109-7.885-11.3896-7.885-19.6723 0-19.2874 12.376-39.5793 31.663-39.5793 30.26.0002 37.645 15.0808 38.548 32.6735l31.371 76.4889c2.661 6.488 2.965 13.704.859 20.393l-4.657 14.793h-94.525l11.983-7.926s-13.957-5.664-13.957-23.907c0-10.156 3.498-34.0642 6.6-53.2638z" fill="#f7e9c4" fill-rule="evenodd"/><ellipse cx="266" cy="49.7229" fill="#203048" fill-opacity=".1" rx="5.27913" ry="5.99821" transform="matrix(.99185834 -.12734609 .12734609 .99185834 -4.166336 34.278888)"/><path d="m250.215 51.1679c0-19.2874 12.376-39.5793 31.664-39.5793 32.594.0003 39.121 17.2283 39.121 36.5156l5 9.5 9.5 28.5 17.5 34.9998c-1.849-.5-2-4.5-7-8.5-4.778-3.822-12-8.5-32.5 0 1.5-5 2-14.104 0-20.604-2.425-7.8816-6.5-15.5-14.5-24.8958 8 0 16-14.1042 8-21.5-9.463-8.7488-34.551 2.9917-42 3.8958-6 0-2-6.7915-9-9s-5.785 23 11.5 30.1042c-2.566.9164-4.765 6.2257-7 9.5-2.493 3.6516-4.854 5.6466-5.418 8.0586-.029.1557-.056.3029-.082.4414.02-.1489.048-.2959.082-.4414.523-2.8414 1.496-8.5523 2.918-17.5586-7.6-5.6-8.499-13-7.785-19.4363z" fill="#fb0"/><ellipse cx="266.72" cy="31.8569" fill="#fff" rx="3.30433" ry="4.13042" transform="matrix(.99185834 -.12734609 .12734609 .99185834 -1.885309 34.225118)"/><ellipse cx="288.91" cy="33.4287" fill="#fff" rx="4.9565" ry="4.13042" transform="matrix(.99185834 -.12734609 .12734609 .99185834 -1.904808 37.063725)"/><ellipse cx="267.591" cy="32.1613" fill="#00003b" rx="2.47825" ry="2.89129" transform="matrix(.99185834 -.12734609 .12734609 .99185834 -1.916982 34.338515)"/><circle cx="290.549" cy="33.2185" fill="#00003b" r="3.30433" transform="matrix(.99185834 -.12734609 .12734609 .99185834 -1.864696 37.270734)"/><circle cx="288" cy="32.76" fill="#fff" r="1" transform="matrix(.99185834 -.12734609 .12734609 .99185834 -1.827061 36.942396)"/><circle cx="265.763" cy="31.4356" fill="#fff" r="1" transform="matrix(.99185834 -.12734609 .12734609 .99185834 -1.83945 34.099818)"/><rect fill="#00003b" height="6.60867" rx="3.30433" transform="matrix(.98720017 .15948612 -.15948612 .98720017 10.093461 -41.192916)" width="8.26083" x="261.679" y="42.2859"/><path d="m257.879 70c-14.33 55.62-3.085 72.707 5.014 78.369l-11.505 8.631h27.612" stroke="#fc8c00" stroke-width="3"/><path d="m288.82 125c-3.672 23.002-5.417 21.266-6.886 24.333-1.468 3.067-8.568 6.389-11.934 7.667h28" stroke="#fc8c00" stroke-width="3"/><path d="m274.369 133.579c.155 4.811 1.397 15.086 5.122 17.694" stroke="#fc8c00" stroke-width="3"/><path d="m315 22s8 38.5 27.38 77.0946c14.233 24.9664 23.025 58.9054 6.733 58.9054" stroke="#fc8c00" stroke-width="3"/><path d="m255.5 66c-3.725-4.1907-8.504-12.0382-4.779-24.6104 2.225-7.5089 8.536-19.0912 12.572-23.7476 2.501-2.373 9.337-6.2291 16.846-6.2292 8.009 0 20.022 0 26.251 4.4495" stroke="#fb0" stroke-width="3"/><path d="m310.441 2.91359c8.972-4.84977 7.935 7.40431 6.258 17.12861-.555 3.222-4.611 4.3815-6.856 2.0046l-1.554-1.6449c-.306-.3236-.663-.594-1.058-.7999l-5.837-3.0451c-1.976-1.0312-2.761-3.51-1.425-5.2946 2.684-3.58352 5.991-5.92633 10.472-8.34871z" fill="#fb0"/><path d="m309.991 6.68635c5.965-3.22466 5.738 4.13225 4.713 10.76885-.451 2.9215-4.134 3.9702-6.164 1.821l-.197-.2094c-.146-.1539-.316-.2825-.504-.3805-1.764-.9206-2.138-6.5926-.963-8.1992 1.256-1.71915 2.304-3.36234 3.115-3.80075z" fill="#fb8c35"/><path clip-rule="evenodd" d="m346.726 157.232c9.689-.368 16.888-4.391 8.56-24.628-6.528-15.865-10.762-24-24.037-24-13.276 0-24.038 10.745-24.038 24 0 5.207 1.661 10.027 4.483 13.96h-12.174c-3.049 0-5.52 2.472-5.52 5.52 0 3.049 2.471 5.52 5.52 5.52h45.208c.705 0 1.379-.132 1.998-.372z" fill="#fb0" fill-rule="evenodd"/><path d="m355.286 132.604 2.775-1.141zm-8.56 24.628-.113-2.998-.504.019-.469.182zm-35.032-10.668v3h5.844l-3.407-4.749zm40.818-12.818c4.138 10.055 3.867 14.914 2.622 17.177-1.128 2.051-3.773 3.131-8.521 3.311l.227 5.995c4.941-.187 10.739-1.303 13.551-6.414 2.695-4.9 1.859-12.171-2.33-22.352zm-21.263-22.142c5.869 0 9.391 1.73 12.297 5.033 3.144 3.574 5.663 9.081 8.966 17.109l5.549-2.283c-3.225-7.837-6.087-14.33-10.011-18.79-4.162-4.731-9.395-7.069-16.801-7.069zm-21.038 21c0-11.593 9.415-21 21.038-21v-6c-14.928 0-27.038 12.084-27.038 27zm3.92 12.211c-2.468-3.44-3.92-7.652-3.92-12.211h-6c0 5.856 1.87 11.283 5.045 15.709zm-14.611 4.749h12.174v-6h-12.174zm-2.52 2.52c0-1.392 1.128-2.52 2.52-2.52v-6c-4.705 0-8.52 3.815-8.52 8.52zm2.52 2.52c-1.392 0-2.52-1.128-2.52-2.52h-6c0 4.706 3.815 8.52 8.52 8.52zm45.208 0h-45.208v6h45.208zm.912-.169c-.279.108-.585.169-.912.169v6c1.082 0 2.124-.203 3.084-.576z" fill="#fc8c00" mask="url(#a)"/><path d="m268.998 31.4361c-.291-2.2626-1.994-3.9084-3.804-3.676s-3.042 2.255-2.751 4.5176" stroke="#00003b" stroke-width="2"/><path d="m292.827 32.7975c-.291-2.2626-2.727-3.8142-5.443-3.4656-2.715.3486-4.68 2.4654-4.39 4.728" stroke="#00003b" stroke-width="2"/><path d="m252.111 113.343c-6.829 2.018-16.439 13.268-8.244 34.129m-11.312 7.313c2.06 2.747 14.59 2.483 20.488 1.397" stroke="#fc8c00" stroke-width="3"/><rect fill="#00003b" height="37.2093" rx="4" width="148.739" x="46" y="4"/><path d="m69.1005 22.6044c0 3.0067-2.4355 5.4419-5.437 5.4419s-5.4369-2.4352-5.4369-5.4419c0-3.0066 2.4354-5.4418 5.4369-5.4418s5.437 2.4352 5.437 5.4418z" stroke="#a6acb6" stroke-width="4"/><ellipse cx="116.65" cy="17.9535" fill="#a6acb6" rx="1.85924" ry="1.86046"/><ellipse cx="125.947" cy="17.9535" fill="#a6acb6" rx="1.85924" ry="1.86046"/><ellipse cx="135.243" cy="17.9535" fill="#a6acb6" rx="1.85924" ry="1.86046"/><ellipse cx="144.538" cy="17.9535" fill="#a6acb6" rx="1.85924" ry="1.86046"/><ellipse cx="153.836" cy="17.9535" fill="#a6acb6" rx="1.85924" ry="1.86046"/><ellipse cx="163.132" cy="17.9535" fill="#a6acb6" rx="1.85924" ry="1.86046"/><ellipse cx="172.428" cy="17.9535" fill="#a6acb6" rx="1.85924" ry="1.86046"/><ellipse cx="181.724" cy="17.9535" fill="#a6acb6" rx="1.85924" ry="1.86046"/><ellipse cx="121.299" cy="22.6044" fill="#a6acb6" rx="1.85924" ry="1.86046"/><ellipse cx="130.595" cy="22.6044" fill="#a6acb6" rx="1.85924" ry="1.86046"/><ellipse cx="139.891" cy="22.6044" fill="#a6acb6" rx="1.85924" ry="1.86046"/><ellipse cx="149.186" cy="22.6044" fill="#a6acb6" rx="1.85924" ry="1.86046"/><ellipse cx="158.484" cy="22.6044" fill="#a6acb6" rx="1.85924" ry="1.86046"/><ellipse cx="167.78" cy="22.6044" fill="#a6acb6" rx="1.85924" ry="1.86046"/><ellipse cx="177.076" cy="22.6044" fill="#a6acb6" rx="1.85924" ry="1.86046"/><ellipse cx="186.372" cy="22.6044" fill="#a6acb6" rx="1.85924" ry="1.86046"/><ellipse cx="116.65" cy="27.256" fill="#a6acb6" rx="1.85924" ry="1.86046"/><ellipse cx="125.947" cy="27.256" fill="#a6acb6" rx="1.85924" ry="1.86046"/><ellipse cx="135.243" cy="27.256" fill="#a6acb6" rx="1.85924" ry="1.86046"/><ellipse cx="144.538" cy="27.256" fill="#a6acb6" rx="1.85924" ry="1.86046"/><ellipse cx="153.836" cy="27.256" fill="#a6acb6" rx="1.85924" ry="1.86046"/><ellipse cx="163.132" cy="27.256" fill="#a6acb6" rx="1.85924" ry="1.86046"/><ellipse cx="172.428" cy="27.256" fill="#a6acb6" rx="1.85924" ry="1.86046"/><ellipse cx="181.724" cy="27.256" fill="#a6acb6" rx="1.85924" ry="1.86046"/><rect fill="#00003b" height="37.2093" rx="4" width="148.739" x="46" y="44.9304"/><path d="m69.1005 63.5349c0 3.0067-2.4355 5.4418-5.437 5.4418s-5.4369-2.4351-5.4369-5.4418 2.4354-5.4419 5.4369-5.4419 5.437 2.4352 5.437 5.4419z" stroke="#a6acb6" stroke-width="4"/><ellipse cx="116.65" cy="58.8837" fill="#a6acb6" rx="1.85924" ry="1.86046"/><ellipse cx="125.947" cy="58.8837" fill="#a6acb6" rx="1.85924" ry="1.86046"/><ellipse cx="135.243" cy="58.8837" fill="#a6acb6" rx="1.85924" ry="1.86046"/><ellipse cx="144.538" cy="58.8837" fill="#a6acb6" rx="1.85924" ry="1.86046"/><ellipse cx="153.836" cy="58.8837" fill="#a6acb6" rx="1.85924" ry="1.86046"/><ellipse cx="163.132" cy="58.8837" fill="#a6acb6" rx="1.85924" ry="1.86046"/><ellipse cx="172.428" cy="58.8837" fill="#a6acb6" rx="1.85924" ry="1.86046"/><ellipse cx="181.724" cy="58.8837" fill="#a6acb6" rx="1.85924" ry="1.86046"/><ellipse cx="121.299" cy="63.5345" fill="#a6acb6" rx="1.85924" ry="1.86046"/><ellipse cx="130.595" cy="63.5345" fill="#a6acb6" rx="1.85924" ry="1.86046"/><ellipse cx="139.891" cy="63.5345" fill="#a6acb6" rx="1.85924" ry="1.86046"/><ellipse cx="149.186" cy="63.5345" fill="#a6acb6" rx="1.85924" ry="1.86046"/><ellipse cx="158.484" cy="63.5345" fill="#a6acb6" rx="1.85924" ry="1.86046"/><ellipse cx="167.78" cy="63.5345" fill="#a6acb6" rx="1.85924" ry="1.86046"/><ellipse cx="177.076" cy="63.5345" fill="#a6acb6" rx="1.85924" ry="1.86046"/><ellipse cx="186.372" cy="63.5345" fill="#a6acb6" rx="1.85924" ry="1.86046"/><ellipse cx="116.65" cy="68.1859" fill="#a6acb6" rx="1.85924" ry="1.86046"/><ellipse cx="125.947" cy="68.1859" fill="#a6acb6" rx="1.85924" ry="1.86046"/><ellipse cx="135.243" cy="68.1859" fill="#a6acb6" rx="1.85924" ry="1.86046"/><ellipse cx="144.538" cy="68.1859" fill="#a6acb6" rx="1.85924" ry="1.86046"/><ellipse cx="153.836" cy="68.1859" fill="#a6acb6" rx="1.85924" ry="1.86046"/><ellipse cx="163.132" cy="68.1859" fill="#a6acb6" rx="1.85924" ry="1.86046"/><ellipse cx="172.428" cy="68.1859" fill="#a6acb6" rx="1.85924" ry="1.86046"/><ellipse cx="181.724" cy="68.1859" fill="#a6acb6" rx="1.85924" ry="1.86046"/><rect fill="#00003b" height="37.2093" rx="4" width="148.739" x="46" y="85.8604"/><path d="m69.1005 104.465c0 3.006-2.4355 5.442-5.437 5.442s-5.4369-2.436-5.4369-5.442c0-3.007 2.4354-5.4421 5.4369-5.4421s5.437 2.4351 5.437 5.4421z" stroke="#a6acb6" stroke-width="4"/><ellipse cx="116.65" cy="99.8138" fill="#a6acb6" rx="1.85924" ry="1.86046"/><ellipse cx="125.947" cy="99.8138" fill="#a6acb6" rx="1.85924" ry="1.86046"/><ellipse cx="135.243" cy="99.8138" fill="#a6acb6" rx="1.85924" ry="1.86046"/><ellipse cx="144.538" cy="99.8138" fill="#a6acb6" rx="1.85924" ry="1.86046"/><ellipse cx="153.836" cy="99.8138" fill="#a6acb6" rx="1.85924" ry="1.86046"/><ellipse cx="163.132" cy="99.8138" fill="#a6acb6" rx="1.85924" ry="1.86046"/><ellipse cx="172.428" cy="99.8138" fill="#a6acb6" rx="1.85924" ry="1.86046"/><ellipse cx="181.724" cy="99.8138" fill="#a6acb6" rx="1.85924" ry="1.86046"/><ellipse cx="121.299" cy="104.465" fill="#a6acb6" rx="1.85924" ry="1.86046"/><ellipse cx="130.595" cy="104.465" fill="#a6acb6" rx="1.85924" ry="1.86046"/><ellipse cx="139.891" cy="104.465" fill="#a6acb6" rx="1.85924" ry="1.86046"/><ellipse cx="149.186" cy="104.465" fill="#a6acb6" rx="1.85924" ry="1.86046"/><ellipse cx="158.484" cy="104.465" fill="#a6acb6" rx="1.85924" ry="1.86046"/><ellipse cx="167.78" cy="104.465" fill="#a6acb6" rx="1.85924" ry="1.86046"/><ellipse cx="177.076" cy="104.465" fill="#a6acb6" rx="1.85924" ry="1.86046"/><ellipse cx="186.372" cy="104.465" fill="#a6acb6" rx="1.85924" ry="1.86046"/><ellipse cx="116.65" cy="109.116" fill="#a6acb6" rx="1.85924" ry="1.86046"/><ellipse cx="125.947" cy="109.116" fill="#a6acb6" rx="1.85924" ry="1.86046"/><ellipse cx="135.243" cy="109.116" fill="#a6acb6" rx="1.85924" ry="1.86046"/><ellipse cx="144.538" cy="109.116" fill="#a6acb6" rx="1.85924" ry="1.86046"/><ellipse cx="153.836" cy="109.116" fill="#a6acb6" rx="1.85924" ry="1.86046"/><ellipse cx="163.132" cy="109.116" fill="#a6acb6" rx="1.85924" ry="1.86046"/><ellipse cx="172.428" cy="109.116" fill="#a6acb6" rx="1.85924" ry="1.86046"/><ellipse cx="181.724" cy="109.116" fill="#a6acb6" rx="1.85924" ry="1.86046"/><rect fill="#00003b" height="37.2093" rx="4" width="148.739" x="46" y="126.791"/><path d="m69.1005 145.395c0 3.007-2.4355 5.442-5.437 5.442s-5.4369-2.435-5.4369-5.442c0-3.006 2.4354-5.442 5.4369-5.442s5.437 2.436 5.437 5.442z" stroke="#a6acb6" stroke-width="4"/><g fill="#a6acb6"><ellipse cx="116.65" cy="140.744" rx="1.85924" ry="1.86046"/><ellipse cx="125.947" cy="140.744" rx="1.85924" ry="1.86046"/><ellipse cx="135.243" cy="140.744" rx="1.85924" ry="1.86046"/><ellipse cx="144.538" cy="140.744" rx="1.85924" ry="1.86046"/><ellipse cx="153.836" cy="140.744" rx="1.85924" ry="1.86046"/><ellipse cx="163.132" cy="140.744" rx="1.85924" ry="1.86046"/><ellipse cx="172.428" cy="140.744" rx="1.85924" ry="1.86046"/><ellipse cx="181.724" cy="140.744" rx="1.85924" ry="1.86046"/><ellipse cx="121.299" cy="145.395" rx="1.85924" ry="1.86046"/><ellipse cx="130.595" cy="145.395" rx="1.85924" ry="1.86046"/><ellipse cx="139.891" cy="145.395" rx="1.85924" ry="1.86046"/><ellipse cx="149.186" cy="145.395" rx="1.85924" ry="1.86046"/><ellipse cx="158.484" cy="145.395" rx="1.85924" ry="1.86046"/><ellipse cx="167.78" cy="145.395" rx="1.85924" ry="1.86046"/><ellipse cx="177.076" cy="145.395" rx="1.85924" ry="1.86046"/><ellipse cx="186.372" cy="145.395" rx="1.85924" ry="1.86046"/><ellipse cx="116.65" cy="150.046" rx="1.85924" ry="1.86046"/><ellipse cx="125.947" cy="150.046" rx="1.85924" ry="1.86046"/><ellipse cx="135.243" cy="150.046" rx="1.85924" ry="1.86046"/><ellipse cx="144.538" cy="150.046" rx="1.85924" ry="1.86046"/><ellipse cx="153.836" cy="150.046" rx="1.85924" ry="1.86046"/><ellipse cx="163.132" cy="150.046" rx="1.85924" ry="1.86046"/><ellipse cx="172.428" cy="150.046" rx="1.85924" ry="1.86046"/><ellipse cx="181.724" cy="150.046" rx="1.85924" ry="1.86046"/><path clip-rule="evenodd" d="m227.711 196.598h-160.0001v-4h160.0001z" fill-rule="evenodd" opacity=".5"/><path clip-rule="evenodd" d="m323 187h-68v-4h68z" fill-rule="evenodd" opacity=".5"/></g><path d="m187 159.381c6.043-1.55 48.75 9.437 65.662-19.896 13.944-24.186 5.595-86.4758 16.285-82.2898 8.553 3.3489 4.59 25.845 4.59 42.186" stroke="#00003b" stroke-width="3"/><path d="m266.523 104.493c0-4.108 3.33-7.4373 7.437-7.4373 4.108 0 7.437 3.3293 7.437 7.4373v3.725h-14.874z" fill="#798391"/><path d="m277.354 107.753v3.721" stroke="#00003b" stroke-width="4"/><path d="m270.848 107.753v3.721" stroke="#00003b" stroke-width="4"/></svg>