<svg width="117" height="29" viewBox="0 0 117 29" fill="none" xmlns="http://www.w3.org/2000/svg">
<path d="M11.1492 22.4068C15.461 22.4068 18.2542 19.0441 18.2542 14.0814C18.2542 9.2 15.4881 5.75593 11.1492 5.75593C7.70508 5.75593 6.24068 8.14237 5.99661 8.68475H5.75254V0.115255H0.0576271V22H5.75254V19.478H5.99661C6.2678 20.0475 7.70508 22.4068 11.1492 22.4068ZM9.16949 17.4983C7 17.4983 5.75254 15.9797 5.75254 14.0542C5.75254 12.1559 7 10.6373 9.16949 10.6373C11.3661 10.6373 12.6136 12.1559 12.6136 14.0542C12.6136 15.9797 11.3661 17.4983 9.16949 17.4983ZM27.797 22.4068C32.1089 22.4068 34.8479 19.939 35.7699 16.6305H30.2648C29.9123 17.3898 28.8818 17.9051 27.6614 17.9051C25.8174 17.9051 24.814 16.7661 24.814 15.4644V15.2746H35.8513V13.9729C35.8513 8.79322 32.4343 5.78305 27.797 5.78305C22.536 5.78305 19.553 9.6339 19.553 14.1085C19.553 18.5288 22.4818 22.4068 27.797 22.4068ZM24.814 11.8576C24.814 10.9898 25.8445 9.76949 27.7428 9.76949C29.5055 9.76949 30.5631 10.9356 30.5631 11.8576H24.814Z" fill="#00003B"/>
<path d="M51.2838 1.2V10.0136H41.0601V1.2H37.9143V22H41.0601V12.8068H51.2838V22H54.4567V1.2H51.2838ZM59.4712 4.02034C58.1153 4.02034 57.4915 2.96271 57.4915 2.04068C57.4915 1.11864 58.1153 0.061018 59.4441 0.061018C60.8271 0.061018 61.4237 1.11864 61.4237 2.04068C61.4237 2.96271 60.8271 4.02034 59.4712 4.02034ZM57.8983 22H61.0441V6.21695H57.8983V22ZM64.3206 22H67.4663V15.3288C67.4663 11.8305 69.0663 8.16949 73.8934 9.33559L74.0561 6.32542C69.3917 5.34915 67.7917 9.30847 67.629 9.79661H67.4392V6.21695H64.3206V22ZM77.4087 4.02034C76.0528 4.02034 75.429 2.96271 75.429 2.04068C75.429 1.11864 76.0528 0.061018 77.3816 0.061018C78.7646 0.061018 79.3612 1.11864 79.3612 2.04068C79.3612 2.96271 78.7646 4.02034 77.4087 4.02034ZM75.8358 22H78.9816V6.21695H75.8358V22ZM82.2581 22H85.4309V13.2136C85.4309 9.90508 87.5733 8.54915 89.7157 8.54915C91.8852 8.54915 94.0004 9.90508 94.0004 13.2136V22H97.1733V12.8339C97.1733 9.09153 95.1936 5.83729 91.0445 5.83729C87.3564 5.83729 85.8377 8.38644 85.5665 8.92881H85.4309V6.21695H82.2581V22ZM108.678 28.3458C116.624 28.3458 116.624 21.8373 116.624 20.1831V6.21695H113.424V9.11864H113.288C112.474 7.65424 110.44 5.78305 107.159 5.78305C102.657 5.78305 99.4845 9.22712 99.4845 13.8102C99.4845 18.3119 102.522 21.8644 107.159 21.8644C110.44 21.8644 112.447 20.0475 113.288 18.5831H113.424V20.2644C113.424 21.8102 113.424 25.5797 108.135 25.5797C106.59 25.5797 105.64 25.2 104.881 24.7119V27.5322C105.505 27.9119 106.644 28.3458 108.678 28.3458ZM108 19.1797C104.529 19.1797 102.576 16.7119 102.576 13.8373C102.576 10.9627 104.529 8.49492 108 8.49492C111.363 8.49492 113.369 10.9627 113.369 13.8373C113.369 16.7119 111.363 19.1797 108 19.1797Z" fill="#909AAA"/>
</svg>
