<svg width="24" height="24" viewBox="0 0 24 24" fill="none" xmlns="http://www.w3.org/2000/svg">
  <path fill-rule="evenodd" clip-rule="evenodd" d="M24 23C24 23.5523 23.5523 24 23 24L16.5 24V14.5H19.5L20 11H16.5V8.77133C16.5 7.72264 16.7912 7.00799 18.2951 7.00799L20.213 7.00712V3.76756C19.8812 3.72348 18.7428 3.62486 17.4182 3.62486C14.6529 3.62486 12.7596 5.31281 12.7596 8.41269V11H9.5V14.5H12.7596V24L1 24C0.447715 24 0 23.5523 0 23V1C0 0.447715 0.447715 0 1 0H23C23.5523 0 24 0.447715 24 1V23Z" fill="#00003B"/>
</svg>
