<svg width="40" height="33" viewBox="0 0 40 33" fill="none" xmlns="http://www.w3.org/2000/svg">
  <path fill-rule="evenodd" clip-rule="evenodd" d="M23.1193 15.0451C23.1193 15.0451 23.8653 16.4459 25.8985 16.4459C28.1511 16.4459 29.7894 14.7418 29.7894 12.0124C29.7894 9.52843 28.2974 7.59326 25.8839 7.59326C23.88 7.59326 23.1047 8.99409 23.1047 8.99409H22.9877V4.56055L20.5449 4.57499V16.2293H22.8707L23.0023 15.0451H23.1193ZM27.2296 11.9979C27.2296 13.1821 26.5275 14.1497 25.211 14.1497C23.9092 14.1497 23.1778 13.1966 23.1778 11.9979C23.1778 10.8282 23.9092 9.84614 25.211 9.84614C26.5275 9.84614 27.2296 10.8282 27.2296 11.9979ZM35.143 16.4459C32.4077 16.4459 30.7109 14.5396 30.7109 12.0413C30.7109 9.96167 31.9104 7.59327 35.1284 7.59327C38.9169 7.59327 39.4727 10.9581 39.4727 12.1423V12.6767H33.2707C33.3146 13.7598 34.046 14.4385 35.1723 14.4385C36.0499 14.4385 36.6204 14.0486 36.869 13.4421H39.3849C38.8876 15.305 37.2932 16.4459 35.143 16.4459ZM36.9276 11.0737H33.2707C33.2707 10.1639 34.0167 9.45622 35.1138 9.45622C36.1231 9.45622 36.9276 10.1061 36.9276 11.0737Z" fill="#00003B"/>
  <path fill-rule="evenodd" clip-rule="evenodd" d="M2.8744 11.0144L2.06817 17.1426H9.67483C14.337 17.1426 15.8793 14.8921 15.8793 12.2608C15.8793 9.69868 14.4421 7.69055 12.0234 7.03271C12.3039 9.04085 11.4976 11.0144 8.483 11.0144H2.8744ZM1.26193 23.7556L0 32.9999H11.9183C17.597 32.9999 20.8219 29.5376 20.8219 25.3136C20.8219 21.609 18.1929 18.4929 14.6875 17.7658C15.5288 20.778 14.0565 23.7556 9.28924 23.7556H1.26193Z" fill="#00003B"/>
</svg>
