<svg display="none" xmlns="http://www.w3.org/2000/svg">
  <symbol id="city" viewBox="0 0 32 32" xmlns="http://www.w3.org/2000/svg">
    <path fill-rule="evenodd" clip-rule="evenodd" d="M5 6.0001V25.3161H6.5V8.5351L15.006 13.2081V25.2891H16.506V12.3211L5 6.0001Z"/>
    <path fill-rule="evenodd" clip-rule="evenodd" d="M18.0472 16.6381V18.1381H21.0122V25.3161H22.5132V16.6381H18.0472Z"/>
    <path fill-rule="evenodd" clip-rule="evenodd" d="M18.0472 6.5554V8.0554H24.9772V25.2894H26.4772V6.5554H18.0472Z"/>
    <path fill-rule="evenodd" clip-rule="evenodd" d="M18.047 21.4289H19.547V19.9289H18.047V21.4289Z"/>
    <path fill-rule="evenodd" clip-rule="evenodd" d="M8.69202 15.6229H12.692V14.1229H8.69202V15.6229Z"/>
    <path fill-rule="evenodd" clip-rule="evenodd" d="M8.69202 19.1119H12.692V17.6119H8.69202V19.1119Z"/>
    <path fill-rule="evenodd" clip-rule="evenodd" d="M8.69202 22.5999H12.692V21.0999H8.69202V22.5999Z"/>
  </symbol>
  <symbol id="user-group" viewBox="0 0 32 32" xmlns="http://www.w3.org/2000/svg">
    <path fill-rule="evenodd" clip-rule="evenodd" d="M10.816 7.5C9.591 7.5 8.355 8.261 8.355 9.961C8.355 11.674 9.996 13.393 10.818 14.146C11.611 13.418 13.277 11.687 13.277 9.961C13.277 8.261 12.041 7.5 10.816 7.5ZM5.5 22.635H4C4 20.141 5.25 17.844 7.344 16.488L9.582 15.04C8.529 14.029 6.855 12.086 6.855 9.961C6.855 7.36 8.847 6 10.816 6C12.784 6 14.777 7.36 14.777 9.961C14.777 12.098 13.085 14.051 12.051 15.044L14.288 16.488C14.646 16.72 14.988 16.986 15.303 17.279L14.28 18.377C14.03 18.144 13.759 17.933 13.474 17.748L10.814 16.026L8.159 17.748C6.494 18.825 5.5 20.652 5.5 22.635Z"/>
    <path fill-rule="evenodd" clip-rule="evenodd" d="M20.4947 10.1426C19.2697 10.1426 18.0337 10.9036 18.0337 12.6036C18.0337 14.3166 19.6747 16.0356 20.4967 16.7896C21.2897 16.0606 22.9557 14.3296 22.9557 12.6036C22.9557 10.9036 21.7197 10.1426 20.4947 10.1426ZM27.3107 25.2786H25.8107C25.8107 23.2946 24.8167 21.4676 23.1517 20.3906L20.4927 18.6686L17.8387 20.3906C16.1727 21.4676 15.1787 23.2946 15.1787 25.2786H13.6787C13.6787 22.7846 14.9297 20.4866 17.0237 19.1306L19.2607 17.6826C18.2077 16.6716 16.5337 14.7286 16.5337 12.6036C16.5337 10.0026 18.5257 8.64258 20.4947 8.64258C22.4637 8.64258 24.4557 10.0026 24.4557 12.6036C24.4557 14.7406 22.7637 16.6936 21.7307 17.6866L23.9667 19.1306C26.0607 20.4866 27.3107 22.7846 27.3107 25.2786Z"/>
  </symbol>
  <symbol id="business" viewBox="0 0 32 32" xmlns="http://www.w3.org/2000/svg">
    <path fill-rule="evenodd" clip-rule="evenodd" d="M25.332 24.4829H5.75C4.785 24.4829 4 23.6979 4 22.7329V11.1469C4 10.1819 4.785 9.39688 5.75 9.39688H10.372V5.99988H20.78V10.8969H14.297V9.39688H19.28V7.49988H11.872V10.8969H5.75C5.612 10.8969 5.5 11.0089 5.5 11.1469V22.7329C5.5 22.8709 5.612 22.9829 5.75 22.9829H25.332C25.47 22.9829 25.582 22.8709 25.582 22.7329V11.1469C25.582 11.0089 25.47 10.8969 25.332 10.8969H23.31V9.39688H25.332C26.297 9.39688 27.082 10.1819 27.082 11.1469V22.7329C27.082 23.6979 26.297 24.4829 25.332 24.4829Z"/>
    <path fill-rule="evenodd" clip-rule="evenodd" d="M7.85999 15.3289H23.31V13.8289H7.85999V15.3289Z"/>
    <path fill-rule="evenodd" clip-rule="evenodd" d="M7.85999 19.8549H23.31V18.3549H7.85999V19.8549Z"/>
  </symbol>
  <symbol id="upload" viewBox="0 0 32 32" xmlns="http://www.w3.org/2000/svg">
    <path fill-rule="evenodd" clip-rule="evenodd" d="M27.2516 14.6785C26.3012 13.7261 25.0861 13.0707 23.7773 12.7963C23.5937 8.74181 20.2386 5.5 16.1401 5.5C12.0407 5.5 8.68465 8.74181 8.50005 12.7953C5.3227 13.4566 3 16.2647 3 19.5749C3 21.4239 3.71986 23.1634 5.02772 24.4703C6.3346 25.7792 8.07321 26.5 9.92316 26.5H16.8727V15.9385L19.2647 18.3305L20.3001 17.2952L16.145 13.1401L11.9792 17.3049L13.0155 18.3413L15.4076 15.9502V25.0349H9.92316C8.46488 25.0349 7.09451 24.4664 6.06405 23.435C5.0326 22.4035 4.46512 21.0332 4.46512 19.5749C4.46512 16.7921 6.54656 14.4587 9.30684 14.1491L9.95735 14.0768V13.1469C9.95735 9.73712 12.7303 6.96512 16.1401 6.96512C19.548 6.96512 22.321 9.73712 22.321 13.1469V14.0768L22.9715 14.1491C24.1924 14.2868 25.344 14.8416 26.2153 15.7148C27.2467 16.7453 27.8152 18.1166 27.8152 19.5749C27.8152 21.0332 27.2467 22.4035 26.2143 23.435C25.1848 24.4664 23.8144 25.0349 22.3552 25.0349H19.3439V26.5H22.3552C24.2061 26.5 25.9457 25.7782 27.2516 24.4703C28.5594 23.1634 29.2803 21.4239 29.2803 19.5749C29.2803 17.7249 28.5594 15.9863 27.2516 14.6785Z"/>
  </symbol>
  <symbol id="arrow-down" viewBox="0 0 32 32" xmlns="http://www.w3.org/2000/svg">
    <path fill-rule="evenodd" clip-rule="evenodd" d="M23.2 11L15.63 18.57L8.06 11L7 12.061L15.63 20.691L24.261 12.061L23.2 11Z"/>
  </symbol>
  <symbol id="now" viewBox="0 0 32 32" xmlns="http://www.w3.org/2000/svg">
    <path fill-rule="evenodd" clip-rule="evenodd" d="M27.3095 7.979H24.7995C24.8095 8.069 25.2495 10.149 23.8605 11.869C22.5395 13.499 19.8905 14.359 16.2005 14.359C11.7495 14.359 8.54946 15.529 6.68946 17.829C4.87946 20.059 4.93046 22.659 5.04946 23.739H7.57046C7.57046 23.719 7.10046 21.279 8.64946 19.379C10.0195 17.709 12.5595 16.859 16.2005 16.859C20.7695 16.859 24.0095 15.699 25.8305 13.409C27.4595 11.349 27.4295 9.019 27.3095 7.979Z"/>
    <path fill-rule="evenodd" clip-rule="evenodd" d="M16.2298 7.5C17.1598 7.5 17.9198 8.26 17.9198 9.19C17.9198 10.12 17.1598 10.88 16.2298 10.88C15.2998 10.88 14.5498 10.12 14.5498 9.19C14.5498 8.26 15.2998 7.5 16.2298 7.5ZM16.2298 13.38C18.5398 13.38 20.4198 11.5 20.4198 9.19C20.4198 6.88 18.5398 5 16.2298 5C13.9198 5 12.0498 6.88 12.0498 9.19C12.0498 11.5 13.9198 13.38 16.2298 13.38Z"/>
    <path fill-rule="evenodd" clip-rule="evenodd" d="M17.0897 23.9893H12.1697L13.5797 19.2193H10.9697L8.82971 26.4893H18.8997L21.5497 18.3293H18.9197L17.0897 23.9893Z"/>
  </symbol>
  <symbol id="send" viewBox="0 0 32 32" xmlns="http://www.w3.org/2000/svg">
    <path fill-rule="evenodd" clip-rule="evenodd" d="M27.2618 5.45879C26.8258 4.29879 25.5268 3.70879 24.3658 4.14179L6.92176 10.6718C5.77276 11.1028 4.99976 12.2168 4.99976 13.4438C4.99976 14.6658 5.72576 15.7638 6.84876 16.2438L11.8948 18.3978C13.1218 18.9218 14.5258 18.6498 15.4678 17.7068L19.6168 13.5568L17.8498 11.7898L13.6998 15.9388C13.4818 16.1548 13.1598 16.2178 12.8758 16.0988L7.83076 13.9448C7.62976 13.8588 7.49976 13.6618 7.49976 13.4438C7.49976 13.2528 7.61976 13.0798 7.79876 13.0138L24.7278 6.67679L18.3888 23.5398C18.2198 23.9908 17.4908 23.9318 17.2908 23.4928L15.5068 19.5818L13.2318 20.6188L15.0168 24.5308C15.5298 25.6548 16.6588 26.3818 17.8948 26.3818C19.1488 26.3818 20.2868 25.5928 20.7288 24.4188L27.2608 7.04079C27.4528 6.52979 27.4528 5.96879 27.2618 5.45879Z"/>
  </symbol>
  <symbol id="heart" viewBox="0 0 32 32" xmlns="http://www.w3.org/2000/svg">
    <path fill-rule="evenodd" clip-rule="evenodd" d="M25.5002 12.7398C25.5002 16.8798 22.5202 20.5698 16.1302 24.3598L15.7502 24.5898L15.3602 24.3598C8.89024 20.4698 6.00024 16.8898 6.00024 12.7398C6.00024 9.30982 7.97024 6.99982 10.8902 6.99982C14.4392 6.99982 16.4792 9.38982 17.3202 14.4998H15.8002C14.8802 9.21982 12.8102 8.49982 10.8902 8.49982C8.83024 8.49982 7.50024 10.1698 7.50024 12.7398C7.50024 15.0998 8.45024 18.3698 15.7502 22.8398C23.1302 18.3598 24.0002 14.9398 24.0002 12.7398C24.0002 10.2098 22.6102 8.49982 20.5402 8.49982C19.6602 8.49982 18.9392 8.73982 18.3702 9.21982V7.45982C19.0102 7.14982 19.7402 6.99982 20.5402 6.99982C23.4602 6.99982 25.5002 9.35982 25.5002 12.7398Z"/>
  </symbol>
</svg>
