<svg version="1" xmlns="http://www.w3.org/2000/svg" width="682.667" height="682.667" viewBox="0 0 512.000000 512.000000"><path d="M270.7 149.1c-1 11.2-7.1 20-17.5 25.1l-6.7 3.3-31.2.3-31.2.3-.6 3.2c-1.2 7-6.5 46.3-6.5 48.4v2.3h43.8c47.4 0 49.8-.2 60.3-5.6 25.6-12.9 32-48.1 12.6-69.1-5.1-5.6-10.9-9.6-17.5-12.2l-4.9-2-.6 6zM295.5 245.7c0 10.1-.2 11.3-3.2 17.5-4.4 9.3-10 15.1-19.1 19.6l-7.6 3.7-46.8.3c-35.6.2-47 .6-47.3 1.5-.7 1.8-10.5 75.1-10.5 78.1v2.6h61.8c65.4-.1 70.3-.4 82.3-4.9 14.6-5.6 28.2-17.9 35.3-32.1 6-12 8-21.5 7.4-34.4-1-18.1-7.3-32.2-20.3-45.2-5.6-5.6-9.1-8.1-16.6-11.7-5.2-2.5-10.8-4.9-12.4-5.2l-3-.6v10.8z"/></svg>